<?xml version="1.0" encoding="UTF-8" standalone="no"?>
<svg width="730px" height="217px" viewBox="0 0 730 217" version="1.1" xmlns="http://www.w3.org/2000/svg" xmlns:xlink="http://www.w3.org/1999/xlink">
    <!-- Generator: Sketch 42 (36781) - http://www.bohemiancoding.com/sketch -->
    <title>Group</title>
    <desc>Created with Sketch.</desc>
    <defs></defs>
    <g id="Page-1" stroke="none" stroke-width="1" fill="none" fill-rule="evenodd">
        <g id="Group">
            <rect id="Rectangle-2" fill="#007787" x="220" y="0" width="510" height="217"></rect>
            <rect id="Rectangle" fill="#D32824" x="0" y="0" width="220" height="217"></rect>
            <path d="M276.02,116.655 C278.605,142.27 297.405,157.075 318.79,157.075 C335.475,157.075 347.225,150.26 357.095,139.92 L368.375,150.025 C356.155,163.655 341.35,172.82 318.32,172.82 C284.95,172.82 257.69,147.205 257.69,109.37 C257.69,74.12 282.365,45.92 315.97,45.92 C351.925,45.92 372.605,74.59 372.605,110.31 C372.605,111.955 372.605,113.835 372.37,116.655 L276.02,116.655 Z M276.02,102.085 L354.275,102.085 C352.16,79.995 339.47,61.195 315.5,61.195 C294.585,61.195 278.605,78.585 276.02,102.085 Z M405.875,170 L423.97,170 L423.97,48.505 L405.875,48.505 L405.875,170 Z M465.935,170 L484.03,170 L484.03,100.44 C484.03,77.645 499.54,62.37 520.455,62.37 C541.84,62.37 554.06,76.47 554.06,99.03 L554.06,170 L572.155,170 L572.155,94.565 C572.155,65.66 555,45.92 525.625,45.92 C504.71,45.92 492.02,56.495 484.03,69.655 L484.03,48.505 L465.935,48.505 L465.935,170 Z M650.78,172.35 C674.985,172.35 694.02,158.955 694.02,135.925 L694.02,135.455 C694.02,113.6 673.81,106.315 655.01,100.675 C638.795,95.74 623.755,91.275 623.755,79.76 L623.755,79.29 C623.755,69.185 632.92,61.665 647.255,61.665 C659.005,61.665 671.93,66.13 683.21,73.415 L691.435,59.785 C678.98,51.56 662.53,46.39 647.725,46.39 C623.755,46.39 606.365,60.255 606.365,81.17 L606.365,81.64 C606.365,103.965 627.515,110.545 646.55,115.95 C662.53,120.415 676.865,125.115 676.865,137.335 L676.865,137.805 C676.865,149.555 666.29,157.075 651.72,157.075 C637.385,157.075 622.815,151.435 609.655,141.565 L600.49,154.49 C614.12,165.535 633.39,172.35 650.78,172.35 Z" id="eins" fill="#FFFFFF"></path>
            <polyline id="Path" fill="#FFFFFF" points="48.1169404 183.852595 48.1169404 35.6332031 110.961329 98.4775913 174.365086 35.0738335 174.365086 184.410504 140.025777 184.410504 140.025777 113.804041 110.673241 143.156577 82.275611 114.758947 82.275611 184.318534"></polyline>
        </g>
    </g>
</svg>