<svg id="Ebene_1" data-name="Ebene 1" xmlns="http://www.w3.org/2000/svg" viewBox="0 0 511.82 219.13">
  <polygon fill="#e20613" points="0 0 511.82 0 511.82 219.13 0 219.13 0 0 0 0"/>
  <path fill="white" d="M274.28,252.78H243.93v-29h30.35c13,0,16.93,6.42,16.93,14.39,0,8.17-3.89,14.58-16.93,14.58h0ZM214,317.13h30V281.55H266.3l23.54,35.58h37.36l-30.16-42.77c14.2-6.22,24.13-19.64,24.13-36.16,0-24.3-17.9-43.16-45.15-43.16H214v122.1h0Zm-43.16-61c0-35.77-29-63.38-65.19-63.38s-65.19,27.61-65.19,63.38,29,63.38,65.19,63.38,65.19-27.61,65.19-63.38h0Zm-30.94,0c0,19.25-16.54,34.61-34.25,34.61-17.9,0-34.25-15.36-34.25-34.61s16.35-34.6,34.25-34.6c17.7,0,34.25,15.36,34.25,34.6h0Zm231.71,61h29.95V276h56.59V247.19H401.52V223.79h69.43V195H371.57v122h0Z" transform="translate(0.22 -146.51)"/>
</svg>
